<svg width="13" height="13" viewBox="0 0 13 13" fill="none" xmlns="http://www.w3.org/2000/svg">
<path fill-rule="evenodd" clip-rule="evenodd" d="M7.83864 2.7573C9.20548 4.12414 9.20548 6.34022 7.83864 7.70705C6.47181 9.07389 4.25573 9.07389 2.8889 7.70705C1.52206 6.34022 1.52206 4.12414 2.8889 2.7573C4.25573 1.39047 6.47181 1.39047 7.83864 2.7573ZM8.54575 2.0502C10.3031 3.80756 10.3031 6.6568 8.54575 8.41416C6.78839 10.1715 3.93915 10.1715 2.18179 8.41416C0.42443 6.6568 0.42443 3.80756 2.18179 2.0502C3.93915 0.292838 6.78839 0.292838 8.54575 2.0502ZM8.19219 8.76782L11.7277 12.3034L12.4348 11.5962L8.8993 8.06072L8.19219 8.76782Z" fill="black"/>
</svg>
