<svg width="33" height="23" viewBox="0 0 33 23" fill="none" xmlns="http://www.w3.org/2000/svg">
<g clip-path="url(#clip0)">
<path fill-rule="evenodd" clip-rule="evenodd" d="M33 0.18949L33 22.5997C33 22.8208 32.8321 22.9999 32.625 22.9999L0.374999 22.9999C0.167891 22.9999 -1.00674e-06 22.8208 -9.97076e-07 22.5997L-1.74926e-08 0.189488C-7.83169e-09 -0.0315267 0.167892 -0.210695 0.375 -0.210695L32.625 -0.210693C32.8321 -0.210693 33 -0.0315253 33 0.18949Z" fill="#FF5A5F"/>
<path fill-rule="evenodd" clip-rule="evenodd" d="M11.6623 11.7148L11.6623 13.9228C11.6623 14.6704 11.0944 15.2765 10.3939 15.2765L8.66234 15.2765C8.49665 15.2765 8.36234 15.1331 8.36234 14.9563L8.36234 12.7953L8.96234 12.7953L8.96234 14.6362L10.3939 14.6362C10.7631 14.6362 11.0623 14.3168 11.0623 13.9228L11.0623 11.7148L11.6623 11.7148Z" fill="white"/>
<path fill-rule="evenodd" clip-rule="evenodd" d="M7.0125 11.7149C7.0125 11.5381 7.14682 11.3948 7.3125 11.3948L10.0125 11.3948C10.1782 11.3948 10.3125 11.5381 10.3125 11.7149L10.3125 13.8759L9.7125 13.8759L9.7125 12.0351L7.6125 12.0351L7.6125 15.3166L7.0125 15.3166L7.0125 11.7149Z" fill="white"/>
<path fill-rule="evenodd" clip-rule="evenodd" d="M23.6825 7.53287C22.0283 7.53287 20.6907 8.68812 20.4698 10.3199C20.4485 10.4774 20.322 10.5943 20.1729 10.5943L16.4518 10.5943L16.4518 11.3946L20.2378 11.3946C20.3767 11.3946 20.4975 11.4965 20.5297 11.6408C20.88 13.2138 22.174 14.456 23.6825 14.456C25.4731 14.456 26.9249 12.9063 26.9249 10.9945C26.9249 9.08257 25.4731 7.53287 23.6825 7.53287ZM15.8518 11.3946L15.8518 10.5943L6.26244 10.5943L6.26244 11.3946L15.8518 11.3946ZM19.9225 9.95398C20.2968 8.12215 21.8549 6.89258 23.6825 6.89258C25.8047 6.89258 27.5249 8.72916 27.5249 10.9945C27.5249 13.2598 25.8047 15.0963 23.6825 15.0963C21.9399 15.0963 20.4887 13.7401 20.008 12.0349L5.96244 12.0349C5.79675 12.0349 5.66244 11.8916 5.66244 11.7148L5.66244 10.2741C5.66244 10.0973 5.79675 9.95398 5.96244 9.95398L19.9225 9.95398ZM21.1281 10.9929C21.1281 9.48497 22.2711 8.26122 23.6825 8.26122C25.0938 8.26122 26.2368 9.48497 26.2368 10.9929C26.2368 12.5008 25.0938 13.7246 23.6825 13.7246C22.2711 13.7246 21.1281 12.5008 21.1281 10.9929ZM23.6825 8.90152C22.6038 8.90152 21.7281 9.83713 21.7281 10.9929C21.7281 12.1487 22.6038 13.0843 23.6825 13.0843C24.7611 13.0843 25.6368 12.1487 25.6368 10.9929C25.6368 9.83713 24.7611 8.90152 23.6825 8.90152Z" fill="white"/>
</g>
<defs>
<clipPath id="clip0">
<rect width="23" height="33" fill="white" transform="translate(33) rotate(90)"/>
</clipPath>
</defs>
</svg>
