<svg width="24" height="24" viewBox="0 0 24 24" fill="none" xmlns="http://www.w3.org/2000/svg">
<path d="M16.0003 12.0002C16.0007 12.2339 15.9194 12.4603 15.7703 12.6402L10.7703 18.6402C10.6005 18.8444 10.3566 18.9729 10.0922 18.9972C9.82777 19.0216 9.56449 18.94 9.36028 18.7702C9.15606 18.6005 9.02763 18.3566 9.00325 18.0921C8.97888 17.8277 9.06054 17.5644 9.23028 17.3602L13.7103 12.0002L9.39028 6.64021C9.30721 6.53792 9.24518 6.42023 9.20775 6.29389C9.17031 6.16755 9.15822 6.03506 9.17216 5.90403C9.1861 5.773 9.2258 5.64602 9.28897 5.53038C9.35214 5.41475 9.43755 5.31273 9.54028 5.23021C9.6431 5.13863 9.76372 5.06927 9.8946 5.02648C10.0255 4.98369 10.1638 4.96839 10.3008 4.98153C10.4379 4.99467 10.5708 5.03598 10.6911 5.10286C10.8115 5.16974 10.9167 5.26076 11.0003 5.37021L15.8303 11.3702C15.9558 11.5553 16.0156 11.7771 16.0003 12.0002Z" fill="black"/>
</svg>
