<svg width="24" height="24" viewBox="0 0 24 24" fill="none" xmlns="http://www.w3.org/2000/svg">
<path d="M7.99972 12.0003C7.99927 11.7666 8.08064 11.5402 8.22972 11.3603L13.2297 5.36028C13.3995 5.15606 13.6434 5.02763 13.9078 5.00325C14.1722 4.97888 14.4355 5.06054 14.6397 5.23028C14.8439 5.40001 14.9724 5.64393 14.9967 5.90835C15.0211 6.17278 14.9395 6.43606 14.7697 6.64028L10.2897 12.0003L14.6097 17.3603C14.6928 17.4626 14.7548 17.5803 14.7923 17.7066C14.8297 17.8329 14.8418 17.9654 14.8278 18.0965C14.8139 18.2275 14.7742 18.3545 14.711 18.4701C14.6479 18.5857 14.5625 18.6878 14.4597 18.7703C14.3569 18.8619 14.2363 18.9312 14.1054 18.974C13.9745 19.0168 13.8362 19.0321 13.6992 19.019C13.5621 19.0058 13.4292 18.9645 13.3089 18.8976C13.1885 18.8307 13.0833 18.7397 12.9997 18.6303L8.16972 12.6303C8.04421 12.4452 7.98435 12.2234 7.99972 12.0003Z" fill="#979797"/>
</svg>
