<svg xmlns="http://www.w3.org/2000/svg" width="33" height="40" viewBox="0 0 33 40">
    <g fill="none" fill-rule="evenodd" opacity=".9">
        <path fill="#FFF" fill-rule="nonzero" d="M33 29.834V0H0v29.834s-.173 7.115 8.85 8.097c.546.057 6.203-.057 7.65 2.069 1.447-2.126 7.104-2.012 7.65-2.069 9.023-.982 8.85-8.097 8.85-8.097zm-9.123 7.294c-.512.057-5.913-.057-7.294 1.971-1.373-2.028-6.774-1.914-7.295-1.971C.687 36.195.844 29.412.844 29.412V.957h31.478v28.455s.165 6.783-8.445 7.716z"/>
        <path fill="#19008F" d="M32.283.714v28.242s.165 6.732-8.468 7.659c-.514.056-5.93-.057-7.315 1.956-1.377-2.013-6.792-1.9-7.315-1.956C.56 35.688.718 28.956.718 28.956V.714h31.564z"/>
        <path fill="#FFF" fill-rule="nonzero" d="M6.825 32.359s-1.465-.378-1.584-1.157c0 0-.071-.538.206-1.06 0 0 .428-.089.467-.258.032-.168.016-.401-.222-.49-.23-.088-.324-.048-.475.137-.142.185-.063.313-.063.313s.27.354-.198.683c0 0-.293-.844-.293-1.406 0 0 .38-1.157.895-2.008.214-.354.681-1.045.681-1.045 0 1.535-1.046 2.9-1.046 2.9 1.458-.867 1.569-2.9 1.569-3.213 0-.305-.174-1.133-.174-1.133s-.999 1.358-1.3 1.968c-.3.603-.42.924-.641 1.583 0 0-.04-1.245 0-1.39.071-.24.61-.867.61-.867s.245.032.34-.153c.095-.177.12-.458-.11-.546-.23-.089-.484.16-.484.16-.087.21.024.45.024.45l-.38.346.016-1.262s.38-1.044.895-1.896c.214-.353.681-1.052.681-1.052 0 1.534-1.046 2.9-1.046 2.9 1.458-.86 1.49-2.957 1.49-3.262 0-.305-.095-1.076-.095-1.076s-1.054 1.277-1.355 1.88c-.301.602-.364.9-.586 1.55 0 0-.04-1.125 0-1.27.071-.24.61-.867.61-.867s.245.024.34-.153c.095-.176.12-.458-.11-.546-.23-.088-.484.16-.484.16-.087.21.024.45.024.45l-.38.346.016-1.293s.38-1.045.895-1.896c.214-.354.681-1.053.681-1.053 0 1.535-1.046 2.9-1.046 2.9 1.458-.86 1.569-2.9 1.569-3.205 0-.305-.174-1.133-.174-1.133s-.999 1.221-1.3 1.824c-.3.602-.42.956-.641 1.607 0 0-.04-1.125 0-1.27.071-.24.61-.867.61-.867s.245.024.34-.153c.095-.177.12-.458-.11-.546-.23-.089-.484.16-.484.16-.087.21.024.45.024.45l-.38.346.016-1.101s.3-1.077.816-1.92l.514-.852a4.465 4.465 0 0 1-.855 2.587c1.458-.86 1.402-2.45 1.402-2.755 0-.314-.04-1.334-.04-1.334s-1.014 1.084-1.322 1.687c-.301.603-.31.98-.531 1.639 0 0-.04-1.1 0-1.245.071-.241.388-.788.388-.788s.27.097.372-.064c.135-.209.175-.37-.087-.522-.214-.129-.451.08-.451.08-.088.21.015.394.015.394l-.237.29.016-.9s.19-1.077.705-1.929c.214-.353.626-1.02.626-1.02 0 1.534-.8 2.482-.8 2.482 1.267-.924 1.489-2.57 1.489-2.876 0-.305-.095-1.229-.095-1.229S5.43 9.807 5.122 10.41c-.3.602-.396 1.125-.475 1.775 0 0-.04-1.237 0-1.382.071-.24.3-.674.3-.674s.199.056.294-.12c.095-.178.008-.379-.166-.467-.222-.12-.317.048-.317.048-.087.21.016.45.016.45l-.183.153-.015-.908s.293-1.012.808-1.864c.214-.353.76-1.052.76-1.052 0 1.534-.824 2.426-.824 2.426 1.458-.86 1.347-2.233 1.347-2.539 0-.82-.095-1.06-.095-1.06S5.328 6.329 5.027 6.939c-.3.603-.412 1.213-.626 1.872l-.016-5.592c.58 1.016.537 1.987.484 3.134 0 0 .269-.86.34-1.583.072-.731-.356-1.438-.467-1.607-.111-.169-.388-1.02-.388-1.02s-.04.402-.38 1.044a3.517 3.517 0 0 0-.412 1.647c-.024.619.57 2.097.617 2.177.064.137.024 1.953.024 1.953-.634-.53-.919-.804-1.125-1.133-.356-.554-.499-1.583-.499-1.583s.373.426.594.651c.222.225.753 1.133.753 1.133.11-1.23-1.759-2.804-1.759-2.804s-.15 2.089.5 3.093c.435.683 1.592 1.173 1.592 1.173v.78l-.278-.177s.088-.258-.023-.45c0 0-.278-.225-.5-.113-.213.113-.158.394-.055.562.111.17.365.113.365.113s.372.337.467.57c.055.137.024 2.121.024 2.121-.634-.53-.84-.875-1.046-1.205-.357-.554-.578-1.478-.578-1.478s.443.361.665.586c.214.225.626 1.037.626 1.037.11-1.23-1.759-2.989-1.759-2.989s-.11 2.065.5 3.101c.498.852 1.592 1.326 1.592 1.326v.763l-.412-.305s.079-.25-.024-.45c0 0-.277-.217-.5-.113-.22.113-.165.394-.055.563.111.168.357.112.357.112s.515.547.61.78c.055.136.024 2.12.024 2.12-.634-.53-.84-.875-1.046-1.197-.357-.562-.578-1.478-.578-1.478s.443.362.665.579c.214.225.626 1.036.626 1.036.11-1.23-1.759-2.989-1.759-2.989s-.11 2.065.5 3.101c.498.86 1.608 1.334 1.608 1.334l-.016.811-.412-.305s.079-.249-.024-.45c0 0-.277-.217-.5-.104-.22.104-.165.385-.055.554.111.169.357.113.357.113s.515.546.61.779c.055.136.024 2.12.024 2.12-.634-.53-.84-.875-1.046-1.196-.357-.563-.578-1.478-.578-1.478s.443.361.665.586c.214.217.626 1.028.626 1.028.11-1.229-1.759-2.988-1.759-2.988s-.11 2.064.5 3.1c.498.86 1.592 1.343 1.592 1.343v1.028l-.412-.305s.079-.25-.024-.45c0 0-.277-.217-.5-.113-.22.113-.165.394-.055.563.111.168.357.112.357.112s.515.546.61.78c.055.136.024 2.12.024 2.12-.634-.53-.84-.875-1.046-1.197-.357-.562-.578-1.478-.578-1.478s.443.362.665.578c.214.225.626 1.037.626 1.037.11-1.23-1.759-2.989-1.759-2.989s-.11 2.065.5 3.101c.498.86 1.592 1.31 1.592 1.31v1.028l-.412-.305s.079-.25-.024-.442c0 0-.277-.225-.5-.112-.22.112-.165.385-.055.554.111.169.357.112.357.112s.515.555.61.78c.055.144.024 2.12.024 2.12-.634-.53-.84-.875-1.046-1.196-.357-.555-.578-1.479-.578-1.479s.443.362.665.587c.214.225.626 1.028.626 1.028.11-1.221-1.759-2.98-1.759-2.98s-.11 2.064.5 3.093c.498.86 1.647 1.341 1.647 1.341.056.555.166 1.286.166 1.286-.499-.281-.388-.506-.388-.506s.056-.225-.11-.394c-.159-.16-.325-.273-.547-.16-.222.112-.111.329-.056.497.056.169.333.281.333.281.166.225.959.836.959.836.689 1.984 2.503 2.458 2.503 2.458l-.349-1.212zm-.23.37c-.023.168-.055.2-.221.088-.159-.113-.515-.338-.737-.756 0 0 .634.474.792.507.167.024.198 0 .167.16zM29.37 26.59c-.31.603-.43.924-.644 1.583 0 0-.04-1.245 0-1.39.064-.24.604-.867.604-.867s.254.032.35-.153c.087-.177.119-.458-.112-.546-.23-.089-.484.16-.484.16-.088.21.016.45.016.45l-.382.346.016-1.262s.39-1.044.906-1.896c.215-.353.683-1.052.683-1.052 0 1.534-1.048 2.9-1.048 2.9 1.462-.86 1.485-2.957 1.485-3.262 0-.305-.095-1.076-.095-1.076s-1.049 1.277-1.35 1.88c-.31.602-.374.9-.589 1.55 0 0-.04-1.125 0-1.27.064-.24.604-.867.604-.867s.254.024.35-.153c.087-.176.119-.458-.111-.546-.23-.088-.485.16-.485.16-.088.21.016.45.016.45l-.382.346.016-1.293s.39-1.045.906-1.896c.215-.354.683-1.053.683-1.053 0 1.535-1.048 2.9-1.048 2.9 1.462-.86 1.573-2.9 1.573-3.205 0-.305-.183-1.133-.183-1.133s-.993 1.221-1.295 1.824c-.31.602-.43.956-.644 1.607 0 0-.04-1.125 0-1.27.064-.24.604-.867.604-.867s.254.024.35-.153c.087-.177.119-.458-.112-.546-.23-.089-.484.16-.484.16-.088.21.016.45.016.45l-.382.346.016-1.101s.31-1.077.819-1.92c.214-.354.524-.852.524-.852 0 1.527-.858 2.587-.858 2.587 1.462-.86 1.406-2.45 1.406-2.755 0-.314-.04-1.334-.04-1.334s-1.024 1.084-1.326 1.687c-.31.603-.318.98-.533 1.639 0 0-.04-1.1 0-1.245.064-.241.39-.788.39-.788s.262.097.365-.064c.135-.209.175-.37-.08-.522-.214-.129-.452.08-.452.08-.096.21.016.394.016.394l-.247.29.016-.9s.191-1.077.715-1.929c.207-.353.628-1.02.628-1.02 0 1.534-.802 2.482-.802 2.482 1.27-.924 1.485-2.57 1.485-2.876 0-.305-.095-1.229-.095-1.229s-1.16 1.237-1.462 1.84c-.31.602-.397 1.125-.477 1.775 0 0-.04-1.237 0-1.382.064-.24.302-.674.302-.674s.199.056.294-.12c.088-.178.008-.379-.167-.467-.222-.12-.317.048-.317.048-.096.21.015.45.015.45l-.19.153-.008-.908s.286-1.012.802-1.864c.215-.353.771-1.052.771-1.052 0 1.534-.834 2.426-.834 2.426 1.462-.86 1.359-2.233 1.359-2.539 0-.82-.096-1.06-.096-1.06s-1.247 1.133-1.55 1.743c-.31.603-.412 1.213-.635 1.872l-.016-5.592c.586 1.01.545 1.99.485 3.134 0 0 .278-.86.35-1.583.063-.731-.366-1.438-.47-1.607-.11-.169-.389-1.02-.389-1.02s-.04.402-.39 1.044c-.34.643-.396 1.246-.412 1.647-.016.619.58 2.097.62 2.177.071.137.031 1.953.031 1.953-.635-.53-.921-.804-1.136-1.133-.358-.554-.493-1.583-.493-1.583s.374.426.596.651c.215.225.755 1.133.755 1.133.111-1.23-1.764-2.804-1.764-2.804s-.15 2.089.493 3.093c.445.683 1.605 1.173 1.605 1.173v.78l-.278-.177s.08-.258-.024-.45c0 0-.278-.225-.5-.113-.223.113-.167.394-.056.562.111.17.357.113.357.113s.382.337.47.57c.055.137.03 2.121.03 2.121-.635-.53-.841-.875-1.048-1.205-.358-.554-.58-1.478-.58-1.478s.437.361.66.586c.222.225.635 1.037.635 1.037.111-1.23-1.764-2.989-1.764-2.989s-.111 2.065.493 3.101c.508.852 1.605 1.326 1.605 1.326v.763l-.413-.305s.08-.25-.032-.45c0 0-.278-.217-.493-.113-.222.113-.167.394-.055.563.11.168.357.112.357.112s.517.547.604.78c.056.136.032 2.12.032 2.12-.636-.53-.842-.875-1.049-1.197-.358-.562-.58-1.478-.58-1.478s.437.362.66.579c.222.225.635 1.036.635 1.036.111-1.23-1.764-2.989-1.764-2.989s-.111 2.065.493 3.101c.508.86 1.62 1.334 1.62 1.334l-.015.811-.413-.305s.08-.249-.032-.45c0 0-.278-.217-.493-.104-.222.104-.167.385-.055.554.11.169.357.113.357.113s.517.546.604.779c.056.136.032 2.12.032 2.12-.636-.53-.842-.875-1.049-1.196-.358-.563-.58-1.478-.58-1.478s.437.361.66.586c.222.217.635 1.028.635 1.028.111-1.229-1.764-2.988-1.764-2.988s-.111 2.064.493 3.1c.508.86 1.605 1.343 1.605 1.343v1.028l-.413-.305s.08-.25-.032-.45c0 0-.278-.217-.493-.113-.222.113-.167.394-.055.563.11.168.357.112.357.112s.517.546.604.78c.056.136.032 2.12.032 2.12-.636-.53-.842-.875-1.049-1.197-.358-.562-.58-1.478-.58-1.478s.437.362.66.578c.222.225.635 1.037.635 1.037.111-1.23-1.764-2.989-1.764-2.989s-.111 2.065.493 3.101c.508.86 1.605 1.31 1.605 1.31v1.028l-.413-.305s.08-.25-.032-.442c0 0-.278-.225-.493-.112-.222.112-.167.385-.055.554.11.169.357.112.357.112s.517.555.604.78c.056.144.032 2.12.032 2.12-.636-.53-.842-.875-1.049-1.196-.358-.555-.58-1.479-.58-1.479s.437.362.66.587c.222.225.635 1.028.635 1.028.111-1.221-1.764-2.98-1.764-2.98s-.111 2.064.493 3.093c.508.86 1.584 1.36 1.584 1.36s-.035.785-.265 1.235c-.461-.33-.19-.683-.19-.683s.07-.129-.072-.314c-.151-.184-.247-.225-.477-.136-.23.088-.254.321-.215.49.032.169.461.257.461.257.286.522.207 1.06.207 1.06-.12.78-1.581 1.157-1.581 1.157l-.358 1.213s1.82-.474 2.51-2.458c0 0 .803-.61.97-.836 0 0 .27-.112.326-.28.056-.17.167-.386-.055-.499-.215-.112-.382 0-.549.16-.167.17-.111.395-.111.395s.111.224-.39.506c.155-.81.207-1.438.207-1.438s.39-1.157.906-2.009c.215-.353.683-1.044.683-1.044 0 1.534-1.048 2.9-1.048 2.9 1.462-.868 1.573-2.9 1.573-3.214 0-.305-.183-1.132-.183-1.132s-.993 1.358-1.295 1.968zm-2.742 6.227c-.166.112-.19.08-.222-.089-.024-.16 0-.136.167-.16.167-.033.802-.507.802-.507-.222.418-.58.643-.747.756zM18.421 32.39h-1.854c-.074 0-.36-.09-.474-.247l-.31 1.061s.016.297.36.297h1.527v2.213s.866-.345.906-.37c.041-.033.074-.041.074-.23v-2.445s.04-.28-.229-.28zm-.057.625v1.835c0 .148-.024.165-.057.181-.033.025-.27.074-.27.074v-1.942H16.65c-.27 0-.278-.247-.278-.247l.065-.288c.09.132.319.198.376.198h1.356c.212 0 .196.19.196.19z"/>
        <path fill="#FFF" fill-rule="nonzero" d="M25.557 32.243c-.203 0-.676.055-.869.031-.203-.03-.473-.131-.473-.131l-.541 1.207c.135.108.811.054.811.054l-.135.882 1.11-.24c-.106-.294.232-1.13.329-1.393.106-.27-.03-.41-.232-.41zm-.241.759c-.068.185-.164.549-.164.773l-.27.062.096-.657s-.261.085-.57 0l.193-.403s.155-.007.3.016c.135.015.164.008.299.008.145 0 .193.007.116.2zM15.285 34.43c-.105-.06 0-.266 0-.266s.249-.18.324-.265c.076-.095.144-.163.144-.386v-1.045c0-.145.03-.205-.129-.24-.158-.025-.527-.025-.685-.025-.151 0-.31-.06-.31-.06-.03.205-.338 1.096-.338 1.096.075.06.233.06.361.094.136.026.053.026.106.12.053.086 0 .531 0 .531-.498-.24-1.801-1.576-1.907-1.661-.105-.094-.21-.06-.24.025-.023.095-.415.72-.415.72s.158.83.18 1.182c.03.36-.158 1.464-.158 1.464h1.327l.339-.967h-.724v-.669c0-.12.053-.12.053-.12s1.884 1.602 2.02 1.696c.128.086.15.026.15.026l.4-.925c-.136-.051-.4-.266-.498-.325zm-.316-1.85s.12.042.241.042c.12 0 .083-.008.203-.008.129 0 .106.18.106.291v.214c0 .18-.015.394-.06.454-.06.077-.249.214-.249.214s.068-.565.03-.633c-.045-.069.015-.069-.083-.095-.105-.025-.264.035-.324-.008 0 0 .113-.309.136-.471zm.324 2.706s-.06-.068-.158-.137c-.106-.068-2.17-1.704-2.17-1.704s-.016.171-.016.265.023 1.285.023 1.285h.588l-.181.334h-.709s.09-.77.076-1.045a774.63 774.63 0 0 0-.083-1.105s.098-.128.12-.197c.023-.077.106-.102.181-.025.174.18 1.44 1.55 2.51 1.952l-.181.377zM22.877 32.311l-.287 1.003.312.059s.04.438-.025.615c-.074.176-.148.311-.27.37-.132.06-.798.169-.798.169s.583-2.106.592-2.216h-1.035l-.345.944.328.092s-.468 1.171-.567 1.272c0 0-.345-.455-.147-1.145.082-.27.221-.86.304-1.003.057-.1-.107-.16-.214-.16-.115 0-.419.068-.945-.168l-.41.969s.098.193.386.252c.279.06.049.278 0 .32-.058.042-.115.177-.115.32 0 .144-.033 1.71-.033 1.71s2.875-.396 3.08-.438c.148-.025.148-.059.23-.134.082-.068.542-.64.583-.7.041-.059.041-.075.058-.219.016-.143.115-1.912.115-1.912h-.797zm.518 1.643c-.009.118-.058.337-.09.379-.034.05-.469.463-.535.522-.074.06-.074.076-.189.101-.164.034-2.562.354-2.562.354s.024-1.255.024-1.373c0-.118.033-.295.074-.328.05-.034.304-.38.148-.422-.23-.05-.337-.11-.337-.11l.197-.437c.214.017.263.076.354.076.098 0 .221.042.172.126-.058.118-.172.59-.238.809-.058.202-.074 1.095-.008 1.246.04.093.69-.017.69-.017.082-.075.714-1.743.714-1.743h-.386l.173-.346h.517c-.008.093-.632 2.081-.632 2.081s1.117-.152 1.224-.202c.098-.042.402-.337.451-.48.058-.135.099-.927.099-.927l-.28-.017.132-.471.386.008s-.09 1.053-.098 1.17z"/>
        <g fill="#FFF">
            <path d="M17.433 19.646a.803.803 0 0 1-.097-.072l.007.009.017.026h.001l.072.037z"/>
            <path d="M17.31 19.547c.027.025.055.048.082.07a.225.225 0 0 0-.083-.07z"/>
            <path fill-rule="nonzero" d="M24.682 5.142c-.386-.139-.813-.033-1.038.08-.226.115-.395.636-.17.863.226.228.106.814.154 1.042.048.203-.04.553-.04.553-.08.114.048.537-.025.627-.145.162-.072.423-.072.423s-.04.114-.073.277c-.024.17-.024.455-.024.455.024.252-.056.537-.056.537s-.12.48-.25.79c-.088.195.04.284-.185.593 0 0-.096.4-.153.578 0 0-.306.301-.475.553 0 0-.282.383-.402.594 0 0-.105.139-.298.464 0 0-.612.244-.709.497-.048.113-.58.284-.95.61-.056.04-.62.268-.716.276 0 0-.475.041-.612.188 0 0-.677.138-.79.195 0 0-.174.048-.335.082a9.556 9.556 0 0 0-.05-.53c.026-.037.035-.139.036-.27l.028.002c.225.008.926-.285.926-.285.692-.073 1.03-.423 1.03-.423.379-.057.395-.228.395-.228.153-.024.515-.195.515-.195.21-.033.41-.448.41-.448.057-.048.274-.276.274-.276.298-.139.548-.676.62-.773.185-.26.242-.456.29-.53.129-.162.362-.96.419-1.179.056-.22.129-.31.201-.822.08-.594.12-1.342.12-1.342-.007-.399.033-.619.033-.619s-.073-.268-.073-.496c0-.228.057-.846.282-1.188.226-.342-.145-.74-.563-.765-.5-.024-.693.171-.918.285-.226.114-.507.635-.282.862.225.228.217.7.266.928.04.203.072.61.072.61-.088.114-.088.342-.088.456 0 .114-.065.334-.065.334s-.048.227-.016.398c.032.204.056.423.056.423-.225.057-.112.651-.112.651s-.338.505-.419.822c-.056.212-.193.366-.354.675 0 0-.193.074-.234.13 0 0-.507.27-.668.66 0 0-.45.187-.58.398 0 0-.442.082-.595.236 0 0-.717.375-.83.415a.502.502 0 0 1-.132.03 7.569 7.569 0 0 0-.047-.96c.84-.129 1.552-.498 1.766-.713.217-.228.104-.285.273-.334.17-.057.363-.57.532-.74.153-.155.2-.448.362-.814.258-.561.258-1.107.258-1.107.217-.284-.057-.732-.057-.732s.057-.512.057-.732c0-.228.024-.854.104-1.22.097-.391.113-.619-.274-.757-.378-.139-.982-.147-1.207-.033-.218.114-.725.651-.5.879.226.22.5.732.556.96.056.228.113.87.113.87-.08.115.032.172.032.285v.196s-.089.74-.25.854c-.169.106-.112.39-.112.39-.226.058-.338.595-.338.595s-.355.382-.508.48c-.33.227-.442.203-.78.252-.052.009-.128.025-.216.044-.015-.254-.01-.435-.01-.435s.032-.228.032-.455c0-.228-.113-.253-.113-.253l.113-.252s.113-.057.113-.17c0-.115-.113-.196-.113-.196.056-.09 0-.537 0-.708 0-.17-.056-.399-.056-.399.056-.227.024-.65-.024-.789-.057-.138-.113-.455-.033-.618.08-.171.395-.684.508-.855.104-.162.217-.504-.62-.789-.838-.285-1.232.09-1.506.228-.282.138-.169.561-.169.732 0 .171.531.57.531.74 0 .163-.056.31-.056.48 0 .164-.032.31.024.391 0 0-.193.114-.193.196 0 .09.113.17.17.284.055.114-.033.114-.033.114s-.161.196-.137.31c.024.113.056.309.17.341.112.025-.09.139 0 .253 0 0-.114.113-.114.284 0 .171.194.366.194.366s-.17.057-.137.171c0 0-.089.196-.089.342 0 .11.02.362.04.701l-.008-.001c-.338-.049-.78-.147-1.006-.48-.193-.277-.362-.334-.362-.334s-.113-.537-.339-.594c0 0 .057-.285-.112-.399-.17-.113-.274-.707-.274-.707s.08-.114.08-.22c0-.114.025-.147-.056-.26 0 0 0-.757.057-.985.056-.228.338-.74.555-.96.225-.228.17-.627-.056-.74-.218-.106-1.264-.245-1.643-.106-.394.138-.676.423-.45.756.225.342.362.88.362 1.107 0 .22.056.732.056.732s-.17.399.056.676c0 0 .057.716.306 1.277.17.366.13.692.282.846.17.171.362.594.531.651.17.057.057.106.282.334.214.224.82.726 1.693.787-.007.09-.006.152.006.173.056.09.113.203.113.285 0 .055-.078.204-.118.408a1.683 1.683 0 0 1-.285-.099c-.185-.081-.74-.35-.74-.35-.154-.154-.604-.211-.604-.211-.121-.212-.54-.367-.54-.367-.169-.26-.338-.415-.338-.415-.04-.057-.378-.406-.378-.406-.226-.31-.403-.513-.491-.708-.13-.31-.42-.676-.42-.676s.057-.708-.168-.764c0 0-.089-.163-.057-.367.033-.17-.008-.398-.008-.398s-.072-.22-.072-.334c0-.114.032-.146-.056-.26 0 0 0-.602.04-.806.048-.228-.12-.87.096-1.098.226-.228.113-.692-.104-.806-.226-.114-.74-.22-1.12-.081-.394.138-.676.423-.45.756.225.342.362.88.362 1.107 0 .228.016.602.016.602s.04.228.024.627c0 0 .073.634.161 1.228.073.513.137.602.194.822.056.22.29.732.418.903.057.074.113.26.29.521.073.098.354.806.644.944 0 0 .266.187.322.228 0 0 .242.44.451.464 0 0 .33.26.491.284 0 0 .153.253.532.31 0 0 .16.26.724.309 0 0 .588.268.805.26 0 0 .111.029.327.055a.53.53 0 0 0 .052.181s-.068.432-.08.698c-.2-.028-.532-.104-.532-.104-.113-.057-.781-.195-.781-.195-.145-.147-.507-.244-.507-.244-.097-.008-.572-.26-.628-.31-.379-.325-.934-.553-.974-.659-.105-.26-.548-.382-.548-.382-.193-.326-.572-.635-.572-.635-.128-.22-.354-.431-.354-.431-.169-.252-.362-.602-.362-.602-.04-.057-.12-.578-.12-.578-.226-.317-.162-.374-.242-.57-.13-.309-.339-.789-.339-.789s-.056-.309-.024-.57c0 0-.137-.194-.169-.365-.024-.163.016-.39.016-.39s.097-.147-.04-.31c-.072-.09-.032-.228-.113-.342 0 0-.112-.634-.072-.838.048-.228-.129-.87.096-1.098.226-.228.113-.692-.112-.806-.218-.114-.652-.138-1.03 0-.395.138-.508.513-.283.846.226.342.113.708.113.936 0 .228-.016.52-.016.52s.016.424 0 .823c0 0 .04.463.129 1.057.072.513.056.464.113.676.056.228.04.822.169.992.048.074.104.26.29.521.072.098.185.749.507 1.001 0 0 .153.594.515.879 0 0 .25.423.362.407 0 0 .25.48.403.512 0 0 .129.48.507.537 0 0 .234.407.612.48 0 0 .322.44.724.448 0 0-.12.325.588.325l.073.033s.225.17.418.17c0 0 .669.277.838.253 0 0 .283.037.676.077v.769s.362.081.362.285c0 .195 0 .276.137.309 0 0 .113.081.032.285 0 0-.088.114-.088.276 0 0-.282.114-.282.513h-.193v.594h.362s.032.057.032.138c0 .09.08.423.024.513-.056.081-.169.195-.225.277-.048.09-.692.35-.805 1.643-.032.31-.419.39-.781.505h5.813c-.419-.114-.588-.196-.62-.505-.113-1.293-.749-1.554-.805-1.643-.057-.082-.17-.196-.226-.277-.056-.09.025-.423.025-.513 0-.081.032-.138.032-.138h.362v-.594H18c0-.399-.282-.513-.282-.513 0-.162-.08-.276-.08-.276-.09-.204.024-.285.024-.285.137-.033.137-.114.137-.31 0-.203.37-.284.37-.284v-.784c.277-.07.68-.184.805-.209.17-.024.395-.081.588-.138.193-.057.169-.17.378-.17.685 0 .7-.237.7-.237.403-.016.588-.455.588-.455.483-.09.838-.537.838-.537.314-.05.475-.505.475-.505.153-.032.49-.513.49-.513.114.017.275-.406.275-.406.37-.285.523-1.05.523-1.05.322-.252.29-.586.362-.692.202-.284.218-.659.266-.716.12-.17.193-.789.25-1.017.056-.211.04-.17.112-.683.08-.586.13-1.058.13-1.058-.017-.39-.09-.79-.09-.79s-.016-.292-.016-.52c0-.228-.112-.594.113-.936.226-.333.113-.79-.274-.927zm-2.85 6.249c-.072.13-.193.292-.306.162-.08-.09-.217-.081-.257-.162-.049-.106.12-.098.153-.212.032-.155.177.073.282.081.064 0 .16.065.128.13zm.443-1.986c-.048.049-.185.04-.257 0-.253-.143.027-.357.1-.541-.007-.101-.016-.204.02-.289.008-.024.008-.073.04-.081.057-.033.13 0 .154.032a.665.665 0 0 1-.057.88zm-.66-3.458c.17-.032.33-.032.467-.081.04-.017.113-.017.153-.065.064-.082.089-.196.169-.244.08-.05.177 0 .21.08.04.099.024.229 0 .335-.033.122-.137.22-.178.341-.04.106-.008.22-.016.342-.048.39.016.781.065 1.188.008.057-.017.195-.113.244-.161.082-.33.106-.5.106-.04 0-.06-.04-.062-.082 0-.016.002-.033.006-.048l-.032.081c-.016-.106.105-.098.137-.17a.77.77 0 0 0 .048-.196c.057-.252-.008-.48-.096-.7.104.025.177-.057.21-.146.08-.253.096-.594-.146-.74-.096-.058-.25-.05-.37-.09-.097-.025-.049-.139.048-.155zm-.105 3.784c.008-.008.033 0 .049 0l.032.114a.251.251 0 0 1 .01-.037c.01-.026.02-.05.014-.077.225-.017.467.024.644.17-.08.22-.056.489-.217.66-.073.073-.242.016-.33-.057-.057-.05-.097-.155-.025-.187.161-.082.274-.196.194-.358-.073-.147-.266.04-.363-.074-.024-.024-.056-.106-.008-.154zm-.25 1.082c.234-.122.484.065.717.138.025.008.065.057.049.073-.065.074-.194.057-.258.017-.145-.09-.314-.074-.45-.163-.017-.016-.098-.04-.057-.065zm-.555 1.245c.057-.033.145-.008.218-.065h-.145a.611.611 0 0 0 .145-.018.3.3 0 0 0 .12-.056c.065-.056-.064-.235.073-.252.169-.024.306.098.41.22a.223.223 0 0 1 .017.26c-.049.082-.178.074-.25.139-.048.04-.048.138-.105.179-.032.016-.104.057-.112.032-.025-.057-.089-.057-.113-.106-.04-.057-.153-.081-.193-.13-.057-.073-.178-.13-.065-.203zm-.531.561c.032-.04.096-.057.153-.073.08-.033-.008-.098.008-.163.024.008.04-.008.056-.024-.032.008-.048-.016-.032-.025.145-.057.21.139.274.253.016.032-.008.081.016.105.048.065.096.122.072.204a.113.113 0 0 1-.056.049c-.161.048-.242-.139-.362-.22-.024-.008-.057.008-.08-.008-.033-.025-.081-.065-.05-.098zm-.435.635c.048-.065.177.065.282.032l-.08-.057c.225-.016.072-.187.112-.333.129.138.282.317.21.496-.049.114-.218.114-.33.155-.162.065-.29-.18-.194-.293zm.024-2.457c-.048.065-.16.065-.201 0-.016-.017-.04-.05-.04-.082-.008-.04-.057-.09-.049-.097.121-.106.274-.114.387-.236.096.162-.008.293-.097.415zm.137-.798a4.136 4.136 0 0 1-.306-.138c-.048-.016.008-.106.032-.122.105-.098.226-.073.29-.195.04-.09.024-.212.105-.236.088.065.257.024.257.113.009.228-.185.651-.378.578zm.491-.92c-.032-.007-.048.025-.056.025-.17 0-.306-.122-.475-.146-.024-.008-.12-.008-.08-.074.064-.097.185-.113.265-.179.072-.073.258.041.274.204 0 .008.048.04.064.065.016.024.008.065.008.106zm.121-.813c.048.106-.016.358-.072.35-.258-.098-.612-.155-.524-.269.17-.016.25.041.419.025.048-.082.105-.244.177-.106zm-1.24-2.075c-.048-.057-.04-.163.056-.187.355-.073.685-.008 1.031-.057.129-.016.089.081.089.098-.017.211-.242.431-.13.65.178.35.073.692.154 1.058a.343.343 0 0 1-.097.293c-.177.171-.459.082-.644-.057-.089-.065-.024-.17.097-.195.08-.016.16 0 .217-.024.177-.098.193-.334.153-.489-.04-.138-.217-.138-.37-.122.129-.048.314-.227.185-.317-.097-.065-.242-.081-.338-.155-.065-.032-.057-.154-.113-.227-.073-.106-.201-.163-.29-.269zm-.612 4.817c.073-.024.177.016.234-.016.088-.057.153-.155.225-.228.097-.09.25.024.314.155.032.065 0 .146-.032.187-.056.065-.089.163-.161.203-.073.033-.137.073-.201.106-.202.081-.37-.138-.419-.325-.008-.041.024-.074.04-.082zM12.541 6.11c-.08-.098-.016-.228.08-.26.25-.098.532-.082.806-.025.08.008.169.016.25.04.136.041.241.163.185.302-.08.187-.234.333-.314.52-.105.245.032.513-.008.782a.568.568 0 0 1-.451.48c-.08.016-.17.016-.21-.057-.16-.269.218-.301.314-.48.025-.05.033-.13 0-.155-.136-.146-.2-.31-.297-.464-.09-.154.04-.333-.065-.472-.072-.097-.217-.122-.29-.211zm.137 2.262c-.016-.016-.016-.073 0-.073.12-.051.253-.048.387-.043l.112.002h-.112c.177.024.362-.057.523.04.016.009.016.058 0 .074-.129.138-.306.032-.475.073-.145.033-.314.073-.435-.073zm.781.683c.008.122-.241.139-.37.163v-.106c.145.008.346-.228.37-.057zm-.322.668c-.006.006-.049.026-.08.007a.113.113 0 0 1-.025.058v-.09a.06.06 0 0 0 .025.032c.006-.067-.054-.131-.017-.195.025-.048.089-.065.137-.081.186-.065.387-.057.58-.024.072.016.17.073.105.113-.226.147-.516-.048-.725.18zm.483.789c-.056.016-.08.09-.105.081-.088-.032.009-.097-.016-.17.049.007.04-.115.097-.098-.016-.22.177-.383.354-.318.065.017.145.106.113.196-.08.179-.25.268-.443.309zm.298.423c-.064-.081.024-.204.12-.277.114-.097.202-.195.33-.097.025.016.017.081.009.13-.04.146-.201.122-.29.22-.04.048-.145.056-.169.024zm1.771 1.163c-.386.017-.765-.113-1.11-.292-.266-.13-.564-.35-.395-.643.072-.13.16.09.233.195.306.464.854.431 1.296.667.017.008.017.073-.024.073zm-5.233-6.045c-.048-.09.008-.171.056-.236.008-.016.04-.008.057-.008l-.016.016c.265.016.386-.04.644-.049.032 0 .169.073.193.073-.056.163-.064.391-.08.554-.033.293-.025.578.024.879.032.236-.033.463-.025.7-.008 0-.024 0-.024.007-.032.18 0 0-.096.163-.025.049-.097.057-.145.04-.073-.032-.137-.121-.113-.203.097-.35.161-.325.12-.683a.538.538 0 0 0-.2-.342.258.258 0 0 1-.09-.097c-.08-.18 0-.391-.072-.57-.048-.106-.177-.146-.233-.244zm.12 2.376c-.007-.016-.007-.073 0-.073.126-.051.256-.048.387-.043l.113.002h-.113c.177.024.363-.057.532.04.008.009.016.058 0 .074-.13.138-.314.032-.475.073-.145.033-.322.073-.443-.073zm.564.944c.145-.041.121-.204.186-.269.12-.122.209.09.233.204.048.227-.21.276-.394.211-.049-.016-.097-.122-.025-.146zm.347 1.31c-.033.032-.13.016-.153-.05-.017-.048.024-.105.048-.097.08 0 .169.065.105.147zm-.105.48c-.056.024-.113-.025-.161-.057-.016-.008-.008-.057 0-.073.105-.066.217-.106.33-.147.024 0 .048 0 .056.008.097.139-.112.228-.225.269zm.169.529c-.032 0-.113-.057-.072-.122.04-.057.12-.057.185-.09.008-.008 0-.049 0-.049.072-.024.153 0 .225.025a.364.364 0 0 1-.338.236zm6.232 2.384c.137-.05.265-.065.394-.122.83-.326.95-.521 1.127-.57.057-.016.322.293.25.334-.37.179-.644.309-1.24.537-.556.211-.789.211-1.377.179-.056 0-.185-.082-.394-.106-.08-.008-.226-.049-.17-.081.435-.26.95-.009 1.41-.171zm-.588 1.359c-.137.08-.306.056-.435.008-.193-.074-.16-.35-.241-.537-.017-.057-.089-.082-.137-.106-.137-.065-.314-.065-.41-.212.04 0 .072.025.112.025.418.04.837.081 1.256.065-.04.244.129.602-.145.757zm.668-3.743c.097-.05.201-.139.298-.188.072-.04.145-.146.242-.105.144.065.185.276.096.341-.322.26-.7.35-1.103.448-.419.098-1.296.155-1.256-.195.075 0 .187.018.29.033l.096.011.039-.002c.464-.03.864-.143 1.298-.343zm-1.055-2.157c.121-.122-.072-.203-.008-.26.17-.138.322.277.234.407-.137.203-.435.114-.668.09-.073-.009-.13-.139-.057-.163.153-.057.33-.008.5-.025 0 0-.009-.04 0-.049zm-.225.904v.113a.464.464 0 0 0 .013-.068c.018-.16-.032-.325.06-.46.04-.057.16-.066.233-.057.04.008.072.09.072.13.025.276.153.594-.016.79-.169.203-.571.113-.861.04-.097-.025-.121-.212-.048-.244.177-.074.37-.147.547-.244zm-.692-4.427c-.025-.008-.089-.065-.057-.122.008-.008.032 0 .057 0l-.033.082a.35.35 0 0 1 .032-.02c.171-.092.374-.017.556-.086.073-.033.105-.122.193-.122-.016-.074.073-.082.08-.139.025-.097-.015-.187-.023-.284.354.008.676.398.563.724a.777.777 0 0 1-.217.309c-.12.114-.153.301-.193.472-.097.39.201.732.145 1.123-.025.138-.049.268-.161.366a.219.219 0 0 1-.242.016c-.16-.073-.386.04-.483-.187.225-.049.443-.138.523-.366.089-.228.073-.472.016-.7-.072-.293.04-.61-.12-.83-.13-.163-.419-.146-.636-.236zm-.08 6.469c.023-.025.088 0 .128-.016.443-.122.886.162 1.288-.025.056.244.064.497.008.732-.048.212-.37.342-.547.204-.25-.195-.274-.57-.556-.749-.064-.04-.16-.04-.241-.057-.04 0-.13-.04-.08-.09zm-3.495 0c-.016-.008-.08-.016-.089-.065-.016-.122.057-.26.193-.252-.016-.017-.04-.025-.056-.033.113-.024.234-.106.306-.073.097.057-.233.48-.354.423zm.821.35c-.008.016-.056.049-.064.065a.389.389 0 0 1-.21.26c-.096.05-.193-.097-.16-.203.015-.033.048-.057.08-.09.145-.114.274-.407.435-.236.024.033-.057.13-.08.204zm.105.537c-.032-.09.04-.147.129-.163h-.081c.153-.138.274-.415.5-.399-.114.244-.162.513-.323.724-.088.114-.193-.056-.225-.162zm2.504.903c-.99-.09-1.313-.26-1.917-.545-.056-.025-.153-.106-.136-.18.016-.056.128-.089.193-.056.185.114.716.504 1.65.643.073.008.306.016.314.065.008.04-.072.073-.104.073zM8.45 7.981c.306-.187.234-.602.338-.903.005-.004.014-.004.026-.003.024-.071.071-.112.103-.176.113-.187.008-.366-.088-.52-.065-.106-.218-.115-.29-.212-.073-.106.048-.18.113-.195a.985.985 0 0 0 .426-.293c.057-.05.113.073.097.154v-.032c-.056.195-.113.382-.08.594.112.602-.017 1.171-.057 1.75-.193.04-.58.154-.588-.164zm.484 1.501c-.083-.083-.31-.02-.234-.134.072-.106.233-.162.354-.26.137-.106.065-.342.185-.48.024-.04.065.024.105.016-.008.236.072.496-.024.7-.06.116-.23.157-.386.158a.097.097 0 0 1 .015.02l-.104-.024a.825.825 0 0 0 .089.004zm.015 1.494c.057.016.049-.098.113-.057-.016-.212.161-.139.193-.26.033-.115-.08-.18-.16-.229-.017-.008.007-.04.024-.048.08-.017.169 0 .217.057.024.032.08.057.064.113.105 0 .097.114.121.171.089.212 0 .521-.266.554 0 0-.008-.057-.024-.074-.12-.08-.306-.04-.282-.227zm.226 1.041c.024-.024-.016-.065.008-.081.233-.139.483-.212.725-.358.04-.025.12-.05.16.016.025.049 0 .106-.032.138-.209.228-.571.48-.861.285zm.596 1.017a.386.386 0 0 1-.17-.114c-.04-.065.017-.114.081-.13.08-.024.17.008.25-.016.072-.033.104-.082.177-.122.064-.033.129-.09.217-.098 0 .033.049.049.024.082-.169.195-.322.48-.58.398zm.209.383c-.056-.082.113-.139.193-.18.121-.048.242-.138.37-.203.017.09-.024.18-.064.252-.056.106-.153.147-.25.22-.104.073-.2-.024-.249-.09zm1.047.594c-.089.048-.089.211-.202.26-.104.04-.12-.081-.185-.138-.016-.008.008-.05.016-.082-.104.033-.169-.032-.217-.114-.032-.065.016-.105.056-.13.073-.032.193.016.242-.073.016-.033-.008-.106.016-.122.048-.057.16-.082.201-.008.057.106.153.13.226.203.024.025.024.098 0 .122-.033.04-.105.065-.153.082zm.523.935c-.145.008-.29-.105-.354-.244-.032-.073.008-.122.072-.179.024-.024 0-.081.008-.13s.065-.016.08-.057c.017-.04.017-.081.05-.122.088-.081.176-.049.225.016.04.057-.057.171.016.204.209.081.314-.196.475-.31.048-.032.145.074.088.147-.201.26-.29.65-.66.675zm.821.545c.008.074-.12.033-.169.017-.145-.05-.346-.155-.338-.326.056 0 .089-.057.097-.09.032-.17.096-.333.233-.333.217 0 .612-.325.588 0-.024.277-.435.39-.41.732zm2.818 1.034c-.692-.114-1.377-.163-2.005-.48-.193-.098-.362-.236-.539-.35l.08.049a.078.078 0 0 0-.029-.03l-.037-.02c-.03-.014-.052-.026-.03-.048.12-.155.12-.358.274-.48.016-.016.072-.065.096-.033.121.139.129.318.234.472.056.065.12.122.193.163.45.269.926.383 1.433.496.29.066.588-.016.886.066.112.024.241 0 .33.097.032.033-.04.049-.024.082-.29-.017-.572.056-.862.016zm.999 5.378c0 .025-.04.057-.049.049-.08-.024-.177-.024-.25-.04-.128-.041-.048-.277-.056-.432 0-.032.024-.065.057-.081.096-.057.209-.05.265.032.074.112.054.238.03.36a.419.419 0 0 1 .003.112zm.595.399c-.185 0-.193-.195-.282-.31-.024-.024-.072.041-.088-.032-.032-.203-.056-.399.016-.586.048-.105.217-.138.282-.024.169.285.04.635.072.952zm.564.22c-.089-.122-.218-.18-.314-.277v.09c-.016-.359-.048-.586-.016-.88.008-.073.048-.138.129-.162.112-.033.25.008.265.114.08.431.105.765.177 1.147-.064.016-.2.008-.241-.032zm.636-1.514c.08.016.12.098.16.171.267.456.38.944.54 1.432a2.543 2.543 0 0 1-.7.049c-.048-.008-.097-.073-.105-.13-.072-.293-.16-.724-.274-1.188-.016-.057.073-.26.145-.293a.337.337 0 0 1 .234-.04zm-.193-.317c-.194-.033-.451.09-.58-.065-.048-.057.097-.139.04-.212-.048-.049-.145-.106-.169-.049-.056.09.016.26-.04.342-.073.09-.33.09-.37-.073.128-.033.29-.065.233-.22-.04-.097-.177-.163-.322-.146.016.146.016.3-.04.415-.057.105-.194 0-.29.008v-.139c.096.025.201-.016.16-.146-.047-.163-.168-.342-.313-.228-.153.114 0 .399-.17.53a.204.204 0 0 1-.265-.05.114.114 0 0 1 0-.073c.056-.073.153-.04.218-.073.12-.065.072-.244.072-.358 0-.065-.137-.114-.201-.073-.032.024-.105.032-.089.105-.113-.146-.072-.382.024-.447.21-.147.508-.057.765.016.395.106.813 0 1.224.057-.008.301-.016.61.113.879zm-1.876-2.539c.008.049.137.04.072.098-.04.04-.129.09-.177.008-.04-.073.056-.09.105-.106zm1.868 1.01c.2.032.434.243.314.438-.033.057-.161-.024-.25-.032-.145 0-.282.081-.427.09-.036.004-.052-.042-.076-.08l-.085-.043a.066.066 0 0 1 .045.003c-.141-.128-.27-.322-.423-.23-.105.056-.218.09-.322.048-.024-.008-.057-.073-.024-.097.08-.057.088-.18.193-.204.241-.065.467.025.676.147.113.073.258-.065.379-.04zm-.089-1.58c-.024.09-.056.22-.16.228-.17.017-.081.31-.178.375-.217.13-.491.073-.74.081 0-.032-.009-.073 0-.081.152-.09.152-.22.096-.342-.024-.057-.137-.049-.17 0-.088.13.009.325-.088.431-.032.049-.145.033-.233.008-.073-.016-.13-.097-.073-.146.032-.04.129.008.177-.025.025-.016.008-.081.008-.13 0 .017-.008.04-.008.025-.016-.114-.088-.22-.209-.188-.064.017-.105.106-.177.13-.008-.121-.113-.195-.218-.219-.016.098-.128.065-.16.04-.097-.056.024-.154-.009-.243.5-.082.999.057 1.506-.066.024-.008.04-.073.064-.097.057-.049.105-.114.194-.114-.016-.09.064-.106.112-.138.057-.041.153 0 .177.032.09.122.13.285.09.44zm2.746-1.977c-.04.293-.395.358-.645.432-.62.195-1.231.325-1.875.488-.335.077-.677.132-1.018.103a2.054 2.054 0 0 1-.061-.006l.193.033c-.137.008-.266-.049-.387-.098-.008 0-.008-.04 0-.04.29-.122.604-.065.918-.114.427-.073.821-.204 1.224-.342.21-.065.386-.228.596-.334.048-.024.12-.008.16-.04.186-.18.427-.204.653-.293.145-.065.258.13.242.211zm.668-.26c-.04.122-.137.269-.266.22-.258-.09-.322-.375-.483-.586-.016-.016.008-.04.032-.049a.136.136 0 0 1 .08 0c.065.04.057.155.17.17.153.025.064-.137.12-.186.04-.033.081.065.154.09.128.04.241.203.193.341zm.715-.563a.18.18 0 0 1-.007.034l-.032-.09c-.008.147-.105.253-.129.4-.016.073-.153.04-.193.016-.217-.18-.314-.448-.491-.668.056 0 .129-.016.16.009.186.179.411.048.589.13.05.021.112.081.103.169zm1.064-.975c-.056.065-.097.252-.201.204-.153-.082-.226-.236-.363-.358-.032-.033.033-.066.049-.074.104-.024.225.09.298-.016.056-.081-.065-.211.016-.293.032-.032.088.008.137.016v-.024c.12.073.29.179.281.31-.008.089-.136.162-.217.235zm.54-.781c-.017.008-.025.09-.073.04-.048.098-.008.229-.113.31-.024-.057-.072-.081-.096-.138a.298.298 0 0 0-.185-.13c-.097-.025-.105-.155-.194-.212.137-.171.435-.09.636-.049.089.008.08.146.025.179zm.305-.87a.327.327 0 0 1-.458.105c-.049-.032-.145-.04-.145-.13 0-.04-.017-.09.008-.106.104-.106.265.033.378-.065.016-.016.016-.065 0-.081-.072-.082-.298-.195-.177-.244.225-.09.547.26.394.52zm.508-.741c-.057.146-.266.195-.475.138-.121-.04-.218-.154-.145-.228.08-.065.241-.138.169-.26-.024-.04-.016-.106-.073-.122-.056-.008-.129.04-.169-.032-.008-.017-.008-.066 0-.074.258-.065.491.04.66.228.089.098.065.269.033.35zm.241-1.237c-.08.155-.21.252-.25.456-.007.032-.088.09-.144.049-.145-.106-.338-.074-.451-.196-.016-.024-.057-.09-.032-.097.169-.033.362.04.483-.057.096-.073.088-.252.193-.342.024-.016.064-.008.105-.008.032 0 .064-.008.08.008.073.049.04.138.016.187zm.049-.659c-.21-.008-.395-.138-.62-.146-.049 0-.153-.033-.137-.122.008-.017.024-.05.032-.05.169-.089.338.025.523-.007.129-.025.193.081.242.17.032.057.008.155-.04.155zm.072-.504c-.032.057-.105-.025-.12-.033-.138-.122-.33-.081-.484-.187-.064-.04-.137-.163-.056-.17.177-.017.29-.123.475-.14-.016.017-.024.041-.032.058.104-.05.128-.155.177-.253.032-.065.112-.024.112 0 .04.245.04.505-.072.725zm.089-.895c-.137.032-.323.105-.387.008-.105-.155.193-.057.306-.057.04-.008.072-.082.105-.033.024.025.016.065-.024.082zm.104-2.205c-.12.374-.402.756-.257 1.155.088.228.233.513.096.716-.096.146-.306.195-.499.073-.048-.024-.04-.09-.024-.13.088-.17.322-.285.225-.513-.104-.244-.048-.512-.129-.724-.08-.22-.402-.333-.467-.586-.096-.423.516-.358.814-.309.128.017.306.139.241.318z"/>
        </g>
        <path fill="#FFF" fill-rule="nonzero" d="M21.238 26.912a.202.202 0 0 1 .029.022c.027.023.05.056.05.072l.001.005c.001.084-.015.171-.032.258-.032.172-.065.343.064.444.076.064.17.056.263.047.033-.003.066-.005.097-.005a.46.46 0 0 0 .278-.1.589.589 0 0 0 .205-.272l.046.027a.65.65 0 0 1-.283.339.502.502 0 0 1-.246.07c-.03 0-.062.003-.093.006-.101.01-.204.019-.294-.057-.16-.126-.123-.319-.086-.514.015-.083.031-.166.03-.24v-.007c0-.004-.014-.006-.029-.02l-.011-.009a.181.181 0 0 0-.012-.007l.023-.059zm-1.864.22l.076.01c.131.017.259.035.42-.018h.001a.356.356 0 0 0 .081-.042.3.3 0 0 0 .135-.185v-.002c.01-.038.016-.08.022-.121.02-.136.041-.272.147-.328.096-.05.172.014.25.08.065.054.132.11.21.095l.009.064c-.099.02-.174-.044-.247-.105-.067-.056-.131-.11-.202-.074-.08.043-.099.161-.117.28a1.674 1.674 0 0 1-.022.126.362.362 0 0 1-.16.228.428.428 0 0 1-.092.046h-.001c-.171.057-.304.039-.439.02a4.187 4.187 0 0 0-.075-.01l.004-.064zm1.11-.2a.462.462 0 0 0-.05.112c-.01.032-.01.064.006.091v.001a.802.802 0 0 0 .05.07.378.378 0 0 1 .094.183.429.429 0 0 1-.043.292.317.317 0 0 1-.188.152.759.759 0 0 1-.363.003 1.533 1.533 0 0 1-.327-.12l-.13-.064h.169v.012c.098.046.196.086.296.108a.719.719 0 0 0 .33.002.265.265 0 0 0 .172-.13.352.352 0 0 0 .037-.225.408.408 0 0 0-.003-.015v-.002c-.008-.06-.043-.104-.08-.151-.018-.023-.036-.047-.054-.075v-.001a.191.191 0 0 1-.015-.151.526.526 0 0 1 .059-.13l.04.039zm.746-.348c.06.01.121-.02.18-.05.084-.044.165-.086.254-.02.103.072.13.186.118.308a.936.936 0 0 1-.072.264l.065-.015c.08-.018.158-.036.211-.098a.87.87 0 0 1 .064-.062c.038-.035.074-.068.1-.118l.043.036a.47.47 0 0 1-.113.134.825.825 0 0 0-.06.058c-.064.075-.15.094-.236.114a.812.812 0 0 0-.115.031l-.003.001-.064.026.035-.073a.965.965 0 0 0 .094-.306c.01-.096-.012-.187-.092-.244-.068-.05-.138-.014-.21.024-.065.033-.132.068-.206.054l.007-.064zM20.27 24.778a.826.826 0 0 0-.365.01c-.12.03-.24.079-.357.137l-.02-.07c.12-.059.243-.11.367-.14a.867.867 0 0 1 .384-.01l-.009.073zm-.73-.223h.003a.175.175 0 0 0 .07-.007.195.195 0 0 0 .13-.12.144.144 0 0 0 .01-.072.091.091 0 0 0-.028-.053.14.14 0 0 0-.065-.033.176.176 0 0 0-.14.026l-.027-.066a.22.22 0 0 1 .177-.033.189.189 0 0 1 .087.046.168.168 0 0 1 .05.099.237.237 0 0 1-.014.117v.001a.257.257 0 0 1-.21.17.216.216 0 0 1-.045 0h-.002l.004-.075zm1.25.445h-.002l-.099-.035c-.173-.057-.347-.116-.446-.33a.994.994 0 0 1-.09-.526.658.658 0 0 1-.12-.053.464.464 0 0 1-.252-.36 2.292 2.292 0 0 1-.073.046c-.117.071-.242.148-.287.31l-.051-.025c.052-.192.188-.275.315-.353.038-.023.076-.046.108-.07l.044-.033-.002.066c-.005.17.102.284.22.35h-.001a.605.605 0 0 0 .112.049.417.417 0 0 1 .134-.23l.001-.001.002-.001a.353.353 0 0 1 .09-.037c.086-.023.185-.01.25.076a.645.645 0 0 1 .101.185c.07.182.088.413-.004.586l-.045-.043c.079-.148.062-.349 0-.51a.72.72 0 0 0-.091-.164l-.001-.001c-.05-.066-.129-.075-.2-.057a.273.273 0 0 0-.077.032.282.282 0 0 0-.013.011c-.073.067-.107.18-.11.303a.895.895 0 0 0 .07.372l.016.036.001.001c.086.19.25.245.412.3.033.01.067.021.1.034h.002L20.79 25zm-.327-.801c.021.04.038.077.049.116a.364.364 0 0 1 .011.133l-.055-.009a.268.268 0 0 0-.008-.098.496.496 0 0 0-.042-.1l.045-.042z"/>
        <g fill="#FFF">
            <path d="M17.699 27.525a.343.343 0 0 0-.14-.073.317.317 0 0 0-.18.007h-.002c-.082.026-.097.116-.111.204a.477.477 0 0 1-.044.159c-.032.054-.1.037-.175.018-.027-.007-.056-.014-.082-.018a.976.976 0 0 1-.011.058v.002a.482.482 0 0 1-.057.116.533.533 0 0 0 .574.05.701.701 0 0 0 .085-.05l.002-.001.002-.001.057-.029c.073-.034.152-.072.175-.158a.274.274 0 0 0-.093-.284zM15.56 27.372a.633.633 0 0 0-.047.01.263.263 0 0 0 .031.038c.022.02.029.04.035.057.003.01.005.016.019.016h.002c.077.007.12.046.164.084a.8.8 0 0 0 .032.027.227.227 0 0 1 .085-.065.302.302 0 0 1 .098-.025.45.45 0 0 0-.418-.142z"/>
            <path fill-rule="nonzero" d="M21.763 25.903V22.86H11.228v3.042H9.326v3.377H23.64v-3.377h-1.877zm-4.485-.969l-.032.059-.05-.029.031-.056c.05-.097.106-.203.224-.203.062 0 .115.027.17.056.04.02.08.04.123.05l-.013.056a.576.576 0 0 1-.135-.055.332.332 0 0 0-.145-.05c-.083 0-.13.09-.173.172zm.382-.406c-.065-.02-.115-.054-.13-.115l-.006-.019c-.028-.1-.054-.192-.144-.24a.226.226 0 0 0-.106-.015.68.68 0 0 0-.127.025c-.069.023-.126.067-.185.112-.04.031-.081.063-.128.09h-.001a.697.697 0 0 1-.513.052 1.682 1.682 0 0 1-.483-.224.415.415 0 0 0-.186-.062.26.26 0 0 0-.07.007c-.057.017-.098.066-.139.115a.464.464 0 0 1-.117.112h-.003c-.038.018-.083.02-.13.021-.05.002-.102.004-.136.027-.046.028-.05.086-.054.141-.004.058-.007.113-.05.15v.002a1.41 1.41 0 0 1-.076.054c-.026.018-.053.037-.072.052h-.001c-.02.016-.03.043-.033.075a.551.551 0 0 0 .004.112l-.057.006a.591.591 0 0 1-.004-.124c.005-.047.02-.089.057-.115.021-.017.048-.035.074-.053.026-.018.052-.036.07-.051.025-.022.028-.066.031-.111.005-.07.01-.143.08-.187.048-.03.108-.033.166-.035a.331.331 0 0 0 .107-.015.428.428 0 0 0 .1-.097c.047-.056.094-.113.167-.134h.001a.264.264 0 0 1 .088-.009c.074.004.15.032.213.07.146.093.305.177.466.217.159.04.32.036.473-.046a1.06 1.06 0 0 0 .121-.085c.063-.048.124-.095.203-.122h.002a.744.744 0 0 1 .138-.027.278.278 0 0 1 .135.02l.002.001c.111.06.14.163.172.276l.006.02c.01.038.045.06.091.074.052.015.117.02.176.02v.056a.706.706 0 0 1-.192-.021zm-.722.444l-.056.013a.272.272 0 0 1 .056-.232 1.04 1.04 0 0 1-.754.033.848.848 0 0 1-.335-.228l-.002-.002a.195.195 0 0 0-.097-.057.1.1 0 0 0-.036-.003.045.045 0 0 0-.023.01.053.053 0 0 0-.016.029c-.02.109.076.214.191.287a.794.794 0 0 0 .143.072l-.02.054a.837.837 0 0 1-.154-.078c-.132-.084-.242-.209-.216-.346v-.001a.1.1 0 0 1 .087-.083.159.159 0 0 1 .057.003c.047.01.097.04.127.075v.001a.838.838 0 0 0 .314.213c.293.11.629.04.887-.121l.032.047-.002.001a.588.588 0 0 0-.145.14.218.218 0 0 0-.038.173zm-1.76-.062c-.035.051-.068.102-.138.12l-.015-.054c.049-.013.077-.055.104-.097.036-.055.073-.11.152-.125h.002a.392.392 0 0 1 .126-.001.316.316 0 0 1 .248.182l-.053.022a.26.26 0 0 0-.204-.148.343.343 0 0 0-.108.001c-.056.011-.086.056-.115.1zm-.687-1.289v1.767h-.147V23.474h3.205v.147h-3.058zm-.484-.45v-.073H17.836v.147h-3.68v2.371h-.149v-2.445zm-2.426 0v-.073H13.705v.147h-1.977v2.372h-.147V23.17zm1.844.303v.147h-1.352v1.767h-.148V23.474h1.5zm-3.599 5.577H9.68v-2.739h3.263v.146H9.826v2.593zm3.25-1.319a.418.418 0 0 0 .112-.103l.048.031a.459.459 0 0 1-.127.119c-.022.016-.045.032-.067.05-.072.066-.167.083-.264.1a1.108 1.108 0 0 0-.128.028l-.003.001-.072.022.039-.064a.725.725 0 0 0 .106-.269c.01-.085-.014-.164-.104-.215-.077-.044-.156-.01-.239.024-.07.03-.144.061-.225.053l.005-.056a.423.423 0 0 0 .198-.05c.096-.04.188-.078.29-.02.114.064.144.164.131.27a.69.69 0 0 1-.08.233l.072-.013c.089-.016.177-.031.236-.086a.903.903 0 0 1 .072-.055zm-2.914 1.09h-.147V26.68h2.754v.147h-2.607v1.995zm1.543-.47a.35.35 0 0 1-.225.138 1.074 1.074 0 0 1-.389 0 2.03 2.03 0 0 1-.365-.107l-.146-.056h.181v.008c.112.042.225.078.34.098.119.021.24.025.368.001a.293.293 0 0 0 .19-.115.238.238 0 0 0 .033-.21v-.002c-.01-.05-.045-.088-.081-.127-.022-.023-.044-.047-.062-.074-.042-.052-.03-.12.001-.182a.385.385 0 0 1 .04-.063l.013.009.034.024a.403.403 0 0 0-.036.056c-.022.044-.033.091-.007.121l.002.002v.001c.017.024.037.046.057.067.041.045.082.089.095.154a.294.294 0 0 1-.043.257zm-.078-.966c-.074-.048-.146-.095-.224-.067-.092.039-.111.152-.128.258-.006.033-.01.065-.018.096l-.001.003v.001a.37.37 0 0 1-.188.203.44.44 0 0 1-.103.038.343.343 0 0 1-.076.011.244.244 0 0 1-.18-.065.358.358 0 0 1-.097-.172.58.58 0 0 1-.019-.128l.057-.002c.002.04.007.08.017.116.016.059.043.11.08.144a.189.189 0 0 0 .14.05c.02 0 .04-.004.063-.01h.002a.338.338 0 0 0 .09-.033.315.315 0 0 0 .158-.167l.001-.003c.007-.028.012-.06.017-.091.02-.121.041-.251.163-.302h.001c.106-.038.19.016.276.072.073.047.149.096.238.082l.009.056c-.11.018-.196-.037-.278-.09zm1.408 1.054a.735.735 0 0 1-.339.092c-.032 0-.065.002-.099.005-.112.008-.234.016-.335-.05-.178-.111-.137-.281-.096-.453.018-.072.035-.146.034-.212v-.005c0-.004-.015-.006-.032-.017a.19.19 0 0 0-.025-.015h-.001l.025-.052h.001a.236.236 0 0 1 .032.02c.03.02.057.049.057.063v.005a.91.91 0 0 1-.035.226c-.037.152-.073.302.07.391h.001c.085.057.197.049.3.042.036-.003.07-.005.103-.005a.641.641 0 0 0 .311-.085.565.565 0 0 0 .237-.243l.051.025a.623.623 0 0 1-.26.268zm.615-3.69a.24.24 0 0 0-.151-.019.167.167 0 0 0-.065.025.062.062 0 0 0-.027.038c-.002.013 0 .03.01.049h.001c.036.071.124.107.22.107v.057c-.116 0-.224-.046-.27-.138a.13.13 0 0 1-.017-.086.117.117 0 0 1 .05-.073.222.222 0 0 1 .087-.035.3.3 0 0 1 .189.025l-.027.05zm-.222-.443a4.925 4.925 0 0 1-.05-.02c-.016.135-.133.225-.26.276a.716.716 0 0 1-.122.036.624.624 0 0 1-.088.411.444.444 0 0 1-.041.054c.133-.024.265-.018.394.006.13.024.259.065.387.11l-.019.055a2.487 2.487 0 0 0-.378-.109 1.027 1.027 0 0 0-.378-.005l-.01-.053c-.11.12-.267.159-.424.197l-.103.027h-.002l-.015-.055h.002l.105-.027c.168-.042.338-.084.434-.23a.565.565 0 0 0 .086-.314c-.004-.096-.04-.184-.12-.235a.22.22 0 0 0-.013-.008l-.002-.001a.209.209 0 0 0-.075-.027c-.072-.014-.158-.003-.209.048a.471.471 0 0 0-.091.127c-.064.124-.085.279-.004.392l-.047.033c-.095-.133-.073-.31 0-.45a.594.594 0 0 1 .101-.142c.067-.066.173-.08.26-.064a.328.328 0 0 1 .093.033l.002.001.015.01c.063.04.103.096.126.16a.653.653 0 0 0 .114-.033c.122-.048.232-.136.227-.266l-.002-.048.043.021.086.038c.145.062.304.13.355.29l-.055.017c-.042-.135-.189-.198-.322-.255zm-.818.557c0-.035.004-.069.014-.1a.264.264 0 0 1 .05-.09l.044.037a.207.207 0 0 0-.04.07.271.271 0 0 0-.011.083h-.057zm1.283 4.13h-.148v-2.969H17.582v.148h-3.69v2.82zm.344-.23h-.148v-2.371h3.206v.148h-3.058v2.224zm1.201-.445a.23.23 0 0 0-.087-.05.266.266 0 0 1-.128-.083c-.013-.016-.06 0-.096.016a.309.309 0 0 0-.036.021l-.082.068a.894.894 0 0 1-.279.182l-.019-.054a.85.85 0 0 0 .26-.171l.084-.07h.001a.225.225 0 0 1 .047-.027c.054-.026.13-.044.165 0 .03.037.067.052.104.065a.278.278 0 0 1 .107.062l-.04.04zm.108-.381c-.022-.08-.108-.127-.196-.174a.691.691 0 0 1-.182-.124.238.238 0 0 0-.06-.05.081.081 0 0 0-.041-.004l.02.068c.019.055.037.109.031.165l-.057-.006c.005-.044-.011-.092-.028-.141-.01-.034-.022-.068-.029-.104L15 27.54l.028-.005c.047-.01.076-.01.104.002a.262.262 0 0 1 .077.063h.001v.001c.044.046.106.08.168.112.1.054.196.106.224.21l-.055.015zm2.301-.115c-.03.112-.12.156-.206.196l-.052.026a.762.762 0 0 1-.192.093.588.588 0 0 1-.535-.095.638.638 0 0 1-.258.174c-.155.06-.334.082-.489.086l-.001-.057c.149-.004.322-.024.47-.082.143-.056.264-.149.314-.298a.597.597 0 0 0 .017-.115.31.31 0 0 0-.024-.128.58.58 0 0 0-.1-.138.301.301 0 0 0-.093-.058.304.304 0 0 0-.281.029h-.001c-.042.025-.064.053-.07.086a.206.206 0 0 0 .023.122l.001.002-.052.023v-.001a.155.155 0 0 0-.057-.049.524.524 0 0 0-.174-.062.32.32 0 0 0-.183.014.17.17 0 0 0-.077.068l-.015.025-.024-.015a.457.457 0 0 1-.062-.049c-.036-.032-.073-.065-.13-.07-.053 0-.06-.022-.071-.053a.089.089 0 0 0-.021-.037.343.343 0 0 1-.05-.064c-.018-.028-.032-.05-.09-.058l-.006-.001-.006-.004-.02-.014-.022-.013a1.396 1.396 0 0 0-.09-.052.9.9 0 0 0-.239-.049.27.27 0 0 0-.207.075c-.087.087-.108.202-.097.323.01.126.055.259.095.376l-.054.018a1.687 1.687 0 0 1-.099-.389c-.012-.136.013-.267.114-.368a.325.325 0 0 1 .25-.092.949.949 0 0 1 .255.052h.001l.003.002c.024.012.062.033.098.056l.022.013.017.011c.054.01.08.026.1.05a.667.667 0 0 1 .17-.023.508.508 0 0 1 .389.187l-.02.017a.587.587 0 0 1 .27.076.184.184 0 0 1 .001-.058c.01-.05.041-.09.098-.124a.361.361 0 0 1 .443.036l.002.001a.638.638 0 0 1 .084.105c.006.008.01.017.015.025a.333.333 0 0 1 .013.026v.001a.365.365 0 0 1 .028.152v.013c.03.004.06.012.089.019.053.013.101.026.11.009h.001c.021-.037.03-.089.038-.14.017-.105.034-.212.15-.25a.375.375 0 0 1 .212-.007.4.4 0 0 1 .164.085.33.33 0 0 1 .111.341zm.3-4.652h3.362v2.478h-3.361v-2.478zm5.264 5.823H18.4v-2.838h5.01v2.838z"/>
        </g>
        <path fill="#FFF" fill-rule="nonzero" d="M18.652 25.664v-2.093H21.522v2.143H18.652v-.05zm.098-1.993v1.943h2.674v-1.943H18.75zM18.652 28.527v-2.098h4.305v2.142h-4.305v-.044zm.093-2.009v1.964h4.119v-1.964h-4.119z"/>
        <path fill="#19008F" fill-rule="nonzero" d="M16.5 40l-.08-.117c-1.236-1.815-5.666-1.951-7.122-1.996-.207-.007-.344-.011-.414-.018-2.062-.224-3.812-.79-5.202-1.683a7.919 7.919 0 0 1-2.635-2.753C-.03 31.543 0 29.747 0 29.73V0h33v29.731c0 .016.031 1.813-1.047 3.702a7.919 7.919 0 0 1-2.635 2.753c-1.39.892-3.14 1.459-5.202 1.683a7.91 7.91 0 0 1-.414.018c-1.456.045-5.886.181-7.122 1.996L16.5 40zM.192.189V29.73c0 .02-.028 1.772 1.028 3.618.973 1.701 3.097 3.833 7.685 4.332.062.007.203.011.4.017 1.45.045 5.807.18 7.195 1.97 1.388-1.79 5.745-1.925 7.196-1.97.195-.006.337-.01.4-.017 4.587-.499 6.71-2.631 7.684-4.332 1.056-1.846 1.028-3.598 1.028-3.616V.19H.192z"/>
        <path fill="#FFF" fill-rule="nonzero" d="M9.073 31.915v-.137s0-1.383.008-1.451c.075-.335.108-.669.306-.79.083-.054.1-.206-.115-.183-.116.015-1.017.069-1.19-.068l-.19.912s.603-.054.115.319c0 0 .033.129.033.608 0 .47 0 1.58-.116 1.793h2.438c.116.023.141.076.141.258 0 .19.149.639-.256.768-.405.137-.628.16-.802.16L9.272 35s1.09-.32 1.38-.502c.28-.182.686-.319.686-.866 0-.554 0-1.535.14-1.717H9.073zm2 1.512c0 .464-.008.585-.157.692-.223.174-1.124.493-1.124.493l.091-.28c.149-.046.364-.137.727-.267.331-.129.199-1.033.199-1.193 0-.152-.025-.197-.116-.22H8.47c.09-.182.09-1.064.09-1.466 0-.403.026-.874.026-.874.413-.312-.215-.236-.215-.236l-.042-.562c.042.099.513.083.604.068.182-.023.173.114.099.16-.165.099-.108.205-.165.494-.017.06-.033 2.036-.033 2.036v.114h2.289c-.124.152-.05.57-.05 1.041z"/>
    </g>
</svg>
