<svg xmlns="http://www.w3.org/2000/svg" xmlns:xlink="http://www.w3.org/1999/xlink" width="300" height="76" viewBox="10 0 310 76">
    <defs>
        <path id="b" d="M318 103a2 2 0 0 0-4 0h-4a2 2 0 0 0-4 0h-4a2 2 0 0 0-4 0h-4a2 2 0 0 0-4 0h-4a2 2 0 0 0-4 0h-4a2 2 0 0 0-4 0h-4a2 2 0 0 0-4 0h-4a2 2 0 0 0-4 0h-4a2 2 0 0 0-4 0h-4a2 2 0 0 0-4 0h-4a2 2 0 0 0-4 0h-4a2 2 0 0 0-4 0h-4a2 2 0 0 0-4 0h-4a2 2 0 0 0-4 0h-4a2 2 0 0 0-4 0h-4a2 2 0 0 0-4 0h-4a2 2 0 0 0-4 0h-4a2 2 0 0 0-4 0h-4a2 2 0 0 0-4 0h-4a2 2 0 0 0-4 0h-4a2 2 0 0 0-4 0h-4a2 2 0 0 0-4 0h-4a2 2 0 0 0-4 0h-4a2 2 0 0 0-4 0h-4a2 2 0 0 0-4 0h-4a2 2 0 0 0-4 0h-4a2 2 0 0 0-4 0h-4a2 2 0 0 0-4 0h-4a2 2 0 0 0-4 0h-4a2 2 0 0 0-4 0h-4a2 2 0 0 0-4 0h-4a2 2 0 0 0-4 0h-4a2 2 0 0 0-4 0h-4a2 2 0 0 0-4 0h-4a2 2 0 0 0-4 0h-4a2 2 0 0 0-4 0h-4a2 2 0 0 0-4 0h-4a2 2 0 0 0-4 0h-4a2 2 0 0 0-4 0H6a2 2 0 0 0-4 0H0V33h2a2 2 0 1 0 4 0h4a2 2 0 1 0 4 0h4a2 2 0 1 0 4 0h4a2 2 0 1 0 4 0h4a2 2 0 1 0 4 0h4a2 2 0 1 0 4 0h4a2 2 0 1 0 4 0h4a2 2 0 1 0 4 0h4a2 2 0 1 0 4 0h4a2 2 0 1 0 4 0h4a2 2 0 1 0 4 0h4a2 2 0 1 0 4 0h4a2 2 0 1 0 4 0h4a2 2 0 0 0 4 0h4a2 2 0 0 0 4 0h4a2 2 0 0 0 4 0h4a2 2 0 0 0 4 0h4a2 2 0 0 0 4 0h4a2 2 0 0 0 4 0h4a2 2 0 0 0 4 0h4a2 2 0 0 0 4 0h4a2 2 0 0 0 4 0h4a2 2 0 0 0 4 0h4a2 2 0 0 0 4 0h4a2 2 0 0 0 4 0h4a2 2 0 0 0 4 0h4a2 2 0 0 0 4 0h4a2 2 0 0 0 4 0h4a2 2 0 0 0 4 0h4a2 2 0 0 0 4 0h4a2 2 0 0 0 4 0h4a2 2 0 0 0 4 0h4a2 2 0 0 0 4 0h4a2 2 0 0 0 4 0h4a2 2 0 0 0 4 0h4a2 2 0 0 0 4 0h4a2 2 0 0 0 4 0h4a2 2 0 0 0 4 0h4a2 2 0 0 0 4 0h4a2 2 0 0 0 4 0h2v70h-2z"/>
    </defs>
    <g fill="none" fill-rule="evenodd" transform="translate(0 -31)">
        <use fill="#FFFBF2" xlink:href="#b"/>
        <use stroke="#000" stroke-opacity=".05" xlink:href="#b"/>
    </g>
</svg>
